<?xml version="1.0" standalone="no"?>
<!DOCTYPE svg PUBLIC "-//W3C//DTD SVG 20010904//EN"
 "http://www.w3.org/TR/2001/REC-SVG-20010904/DTD/svg10.dtd">
<svg version="1.0" xmlns="http://www.w3.org/2000/svg"
 width="300.000000pt" height="250.000000pt" viewBox="0 0 300.000000 250.000000"
 preserveAspectRatio="xMidYMid meet">

<g transform="translate(0.000000,250.000000) scale(0.100000,-0.100000)"
fill="#000000" stroke="none">
<path d="M1680 2483 c0 -32 -37 -80 -66 -87 -42 -11 -54 -25 -54 -63 l0 -35
-62 7 c-35 4 -73 11 -86 16 -38 15 -93 10 -126 -10 -39 -25 -94 -96 -142 -186
-20 -38 -44 -78 -52 -88 -9 -9 -17 -41 -20 -70 l-4 -52 50 -43 c61 -50 94 -54
185 -18 117 46 176 58 241 51 33 -4 67 -11 76 -16 8 -4 38 -18 65 -30 28 -12
70 -38 94 -57 34 -28 55 -36 95 -40 49 -4 53 -2 105 45 l54 49 -12 110 c-15
130 -26 169 -57 211 -13 17 -24 36 -24 42 0 13 -22 19 -112 31 -91 11 -168 29
-185 43 -19 14 -16 37 5 37 36 0 102 89 102 137 0 31 -2 33 -35 33 -27 0 -35
-4 -35 -17z m-270 -236 c0 -7 -7 -23 -16 -36 -23 -33 -41 -11 -19 23 18 28 35
34 35 13z m-132 -65 c3 -9 -3 -13 -19 -10 -12 1 -24 9 -27 16 -3 9 3 13 19 10
12 -1 24 -9 27 -16z m260 -21 c8 -4 12 -19 10 -32 -2 -19 -8 -23 -28 -21 -38
5 -57 27 -40 46 14 18 38 20 58 7z m-121 -35 c-5 -13 -47 -10 -62 5 -7 7 -5
13 4 18 17 11 63 -8 58 -23z m223 -22 c0 -9 -11 -14 -30 -14 -25 0 -30 4 -30
23 0 13 6 29 13 36 10 10 15 8 30 -10 9 -11 17 -27 17 -35z m-330 12 c0 -22
-26 -43 -38 -31 -7 7 19 55 30 55 4 0 8 -11 8 -24z m193 -83 c10 -6 9 -61 -3
-68 -5 -3 -28 -1 -50 5 -32 9 -40 15 -40 33 0 34 20 49 55 41 16 -3 33 -8 38
-11z m395 -40 c3 -27 0 -33 -17 -33 -34 0 -51 11 -51 34 0 30 9 38 40 34 20
-2 26 -9 28 -35z m-230 -15 c3 -30 -1 -36 -20 -42 -38 -10 -45 -7 -51 21 -6
34 0 51 21 56 36 8 47 0 50 -35z"/>
<path d="M2336 2287 c-12 -9 -17 -20 -13 -31 7 -17 27 -22 27 -6 0 12 60 13
78 1 11 -7 9 -17 -12 -49 -14 -23 -26 -49 -26 -57 0 -26 29 -75 45 -75 17 0
20 26 5 35 -23 14 -5 87 28 111 8 6 13 19 10 30 -7 37 -108 67 -142 41z"/>
<path d="M2299 2184 c-23 -34 -26 -35 -69 -29 -60 9 -139 9 -146 2 -4 -3 -4
-13 -1 -21 4 -11 14 -12 41 -6 24 5 43 3 62 -6 47 -25 83 -18 120 23 19 20 34
43 34 49 0 27 -19 22 -41 -12z"/>
<path d="M2450 2025 c0 -8 7 -15 15 -15 8 0 15 7 15 15 0 8 -7 15 -15 15 -8 0
-15 -7 -15 -15z"/>
<path d="M482 1758 c-7 -7 -12 -41 -12 -84 0 -101 -8 -132 -34 -136 -19 -3
-21 -9 -22 -73 0 -38 -7 -90 -14 -115 -15 -54 -15 -107 1 -126 20 -24 15 -537
-6 -625 -3 -13 1 -44 9 -69 12 -41 17 -46 52 -53 21 -4 192 -12 379 -17 187
-4 352 -11 367 -15 19 -5 29 -16 33 -36 5 -24 15 -30 60 -43 29 -9 62 -16 73
-16 13 0 22 -9 26 -26 4 -15 6 -28 4 -29 -7 -6 -146 -44 -186 -50 -52 -8 -70
-33 -44 -64 16 -20 26 -21 254 -22 131 0 242 3 248 6 14 9 13 41 -2 53 -7 5
-33 12 -58 16 -127 16 -130 17 -130 42 0 22 4 23 67 26 67 3 68 3 90 43 13 22
22 49 20 61 -3 20 -2 20 387 19 428 -1 629 6 651 25 8 7 15 23 15 35 0 12 7
28 15 35 8 7 15 20 15 30 0 10 -7 23 -15 30 -11 9 -15 33 -15 86 0 40 -4 106
-9 146 -6 40 -15 147 -22 238 -15 208 -41 354 -95 524 -14 44 -23 85 -20 93 3
7 -6 23 -20 36 -25 24 -29 24 -317 30 -161 4 -323 9 -362 12 -67 4 -1091 24
-1280 25 -58 0 -95 -4 -103 -12z m995 -77 c320 -6 610 -15 645 -21 35 -5 129
-10 209 -10 l147 0 10 -27 c42 -110 66 -237 87 -458 8 -88 22 -212 31 -275 8
-63 16 -159 18 -212 l3 -98 -361 1 c-490 1 -1037 24 -1201 49 -42 7 -172 10
-329 8 l-258 -3 6 195 c4 107 11 229 16 270 5 41 12 149 15 238 4 103 11 179
20 205 8 23 15 68 15 101 l0 58 173 -5 c94 -3 434 -10 754 -16z m-261 -1108
c-29 -5 -29 -5 -6 -16 35 -18 29 -32 -15 -34 l-40 -1 35 7 35 8 -27 11 c-40
16 -34 32 10 31 32 -2 33 -3 8 -6z m133 -39 c12 -15 21 -32 21 -38 0 -8 -2 -8
-8 0 -14 22 -53 27 -73 8 -26 -24 -24 -3 4 29 28 33 31 33 56 1z m81 7 c0 -16
59 -24 75 -11 12 10 16 9 19 -1 2 -8 7 -22 10 -31 6 -19 48 -24 81 -11 16 5
15 8 -5 23 -28 21 -19 40 21 40 37 0 39 -20 2 -21 -27 0 -27 -1 -5 -9 12 -5
22 -16 22 -24 0 -19 -28 -28 -84 -25 -42 3 -51 9 -47 32 1 4 -10 5 -23 1 -16
-4 -34 0 -48 10 -31 22 -48 20 -49 -6 -1 -18 -2 -19 -6 -5 -3 10 -2 25 1 33 6
15 36 20 36 5z m267 -41 c14 -37 30 -39 39 -5 3 14 10 25 15 25 4 0 3 -13 -2
-30 -14 -39 -44 -39 -64 0 -17 33 -18 40 -7 40 4 0 13 -13 19 -30z m162 -7
c-5 -21 -9 -41 -9 -45 0 -17 -32 -7 -37 12 -5 20 -23 28 -23 10 0 -5 -5 -10
-10 -10 -7 0 -7 6 0 20 6 11 17 20 25 20 8 0 15 -9 15 -20 0 -11 4 -20 9 -20
11 0 21 25 21 51 0 10 4 19 9 19 5 0 5 -16 0 -37z m97 26 c-12 -8 -15 -14 -7
-18 7 -5 -2 -15 -23 -26 -20 -11 -39 -16 -43 -11 -10 10 56 66 77 66 12 -1 11
-3 -4 -11z"/>
<path d="M962 1608 c-7 -7 -12 -20 -12 -30 0 -17 -22 -63 -105 -218 -64 -119
-51 -134 109 -128 l114 4 -4 -30 c-2 -17 -9 -78 -15 -136 -6 -58 -18 -122 -26
-143 -12 -30 -13 -40 -3 -52 17 -21 33 -19 57 8 24 26 39 90 48 207 3 47 12
126 20 175 8 50 17 111 20 137 3 26 10 50 16 53 12 8 12 92 -2 100 -5 4 -21 4
-35 1 -18 -5 -24 -13 -24 -34 0 -15 -4 -32 -10 -38 -5 -5 -12 -32 -15 -59 -4
-28 -8 -65 -11 -82 l-5 -33 -89 0 -88 0 64 125 c35 69 64 133 64 143 0 22 -19
42 -40 42 -9 0 -21 -5 -28 -12z"/>
<path d="M2196 1528 c-3 -13 -9 -76 -14 -141 -5 -65 -14 -123 -20 -129 -11
-11 -242 -25 -242 -14 0 4 11 28 24 54 34 66 52 165 37 198 -9 20 -17 25 -39
22 -26 -3 -27 -6 -34 -73 -6 -67 -44 -160 -84 -206 -17 -19 -18 -51 -2 -67 15
-15 178 -16 267 -2 35 6 66 9 68 6 3 -2 -2 -38 -11 -79 -8 -40 -22 -137 -31
-215 -17 -149 -13 -182 23 -182 30 0 42 22 42 75 0 70 17 199 42 323 16 82 24
102 38 102 9 0 25 9 34 19 24 27 13 61 -20 61 -28 0 -29 6 -14 147 5 51 7 99
4 108 -4 9 -18 15 -35 15 -22 0 -30 -6 -33 -22z"/>
<path d="M1393 1473 c-3 -10 -17 -42 -30 -72 -33 -76 -53 -160 -53 -221 0 -41
14 -88 62 -209 78 -197 109 -237 165 -207 46 24 141 128 162 177 24 53 51 174
51 225 0 72 -60 251 -91 270 -22 13 -101 5 -134 -16 -18 -11 -51 -40 -74 -65
-48 -52 -50 -48 -15 29 32 70 29 100 -9 104 -19 2 -29 -2 -34 -15z m255 -173
c19 -56 22 -80 18 -165 -5 -124 -31 -188 -104 -259 -46 -44 -51 -47 -60 -30
-19 37 -122 304 -122 318 0 8 9 18 20 21 11 3 25 15 30 26 16 30 100 122 129
142 45 30 63 19 89 -53z"/>
<path d="M0 1143 l0 -68 98 3 c107 4 130 -6 117 -48 -6 -20 -12 -21 -111 -18
l-104 3 0 -508 0 -507 188 2 187 3 5 150 5 150 22 -25 c70 -79 175 -220 185
-247 12 -32 14 -33 70 -33 l59 0 -15 28 c-8 15 -24 36 -36 47 -12 11 -34 43
-47 70 -14 28 -42 75 -62 105 -20 30 -43 68 -51 84 -8 16 -27 42 -42 58 -27
29 -34 30 -85 11 -9 -4 -13 33 -17 139 -11 342 -24 555 -34 578 -27 61 -44 72
-128 81 -43 4 -107 8 -141 8 l-63 1 0 -67z m230 -288 c6 -8 9 -23 5 -35 -6
-19 -13 -21 -107 -18 -81 2 -103 6 -111 20 -8 12 -7 21 2 32 19 22 193 23 211
1z m-60 -225 c15 -15 18 -29 15 -68 -3 -45 -1 -51 26 -71 33 -25 39 -69 14
-111 -8 -14 -17 -32 -21 -40 -14 -28 -39 -39 -85 -40 -37 0 -50 5 -72 28 -22
23 -27 37 -27 79 0 45 4 54 28 71 15 10 35 22 46 26 16 6 18 13 12 66 -4 33
-4 65 -1 70 10 16 44 11 65 -10z"/>
<path d="M117 423 c-12 -11 -8 -53 4 -53 14 0 38 30 39 48 0 13 -32 17 -43 5z"/>
<path d="M2365 384 c-11 -9 -46 -29 -77 -45 -31 -16 -94 -54 -139 -85 -45 -31
-93 -60 -106 -65 -30 -11 -39 -34 -25 -62 6 -12 12 -31 14 -42 2 -14 16 -23
48 -32 25 -7 72 -21 104 -33 49 -17 84 -20 211 -20 l152 0 36 38 c20 20 75 75
122 122 111 111 112 132 4 155 -35 7 -113 30 -173 49 -122 40 -142 42 -171 20z
m130 -83 c5 -4 46 -18 90 -31 44 -12 84 -25 88 -27 5 -3 -42 -55 -104 -117
l-113 -112 -64 18 c-35 9 -69 21 -76 27 -6 5 -27 12 -46 16 -53 10 -170 49
-170 57 0 3 21 18 48 33 26 15 56 36 67 46 11 10 58 38 105 63 72 39 91 45
125 41 21 -3 44 -9 50 -14z"/>
<path d="M2383 286 c-28 -9 -32 -14 -31 -43 1 -23 4 -31 12 -23 15 15 23 12
29 -10 3 -10 17 -22 33 -26 21 -5 31 -2 45 14 18 23 39 29 39 12 0 -5 -4 -10
-8 -10 -11 0 -76 -90 -70 -96 3 -2 19 16 36 40 18 25 40 47 50 50 17 6 47 56
32 56 -4 0 -10 -6 -13 -14 -6 -15 -47 -11 -47 5 0 12 36 30 44 22 3 -3 6 -1 6
6 0 9 -8 11 -27 6 -16 -4 -41 -8 -58 -10 -16 -1 -40 -5 -52 -8 -13 -3 -23 -2
-23 4 0 9 14 13 37 10 16 -2 26 16 10 21 -6 2 -26 -1 -44 -6z m82 -56 c2 -25
-17 -42 -39 -34 -24 9 -20 43 7 53 26 10 30 8 32 -19z"/>
</g>
</svg>
